<svg id="Layer_1" data-name="Layer 1" xmlns="http://www.w3.org/2000/svg" viewBox="0 0 521.75 70.17"><defs><style>.cls-1{fill:#fdbc16;}.cls-2{fill:#fff;}</style></defs><title>nri-logo</title><path class="cls-1" d="M331.13,300.11H320.35V296.3h3.08V276.09h-3.08v-3.81h9.11l12,20.47V276.09h-3.19v-3.81H349v3.81H346v24H340.6l-12.66-21.49V296.3h3.19Z" transform="translate(-136.33 -270.91)"/><path class="cls-1" d="M350.56,290.14v-.31c0-6.3,4.32-10.51,10.12-10.51,5,0,9.62,3,9.62,10.28V291H355.39c.15,3.93,2.1,6,5.6,6,2.84,0,4.32-1.13,4.67-3.12h4.52c-.66,4.28-4.09,6.62-9.31,6.62C354.88,300.5,350.56,296.57,350.56,290.14Zm15.06-2.37c-.23-3.43-2-5-4.94-5s-4.75,1.94-5.22,5Z" transform="translate(-136.33 -270.91)"/><path class="cls-1" d="M381.51,300.54c-3.9,0-6.78-2.26-6.78-7.9v-9.31h-2.45v-3.58h7.16v12.42c0,3,1.29,4.44,3.9,4.44,2.41,0,4.55-1.64,4.55-4.91v-8.37h-2.45v-3.58h7.2v16.9h2.45v3.46h-7.2v-3.43A7,7,0,0,1,381.51,300.54Z" transform="translate(-136.33 -270.91)"/><path class="cls-1" d="M396.88,300.11v-3.46h2.45V283.33h-2.49v-3.58H404v4.05c1.09-2.57,3.2-4.36,7.09-4.36V284c-4.4-.11-7.09,1.29-7.09,5.57v7.13h2.69v3.46Z" transform="translate(-136.33 -270.91)"/><path class="cls-1" d="M412.88,290.14v-.31a10.46,10.46,0,0,1,20.91-.11V290c0,6.34-4.52,10.47-10.48,10.47S412.88,296.33,412.88,290.14Zm16.08,0v-.32c0-4.32-2.14-6.93-5.61-6.93s-5.64,2.61-5.64,6.89v.32c0,4.28,2.06,6.93,5.64,6.93S429,294.35,429,290.11Z" transform="translate(-136.33 -270.91)"/><path class="cls-1" d="M440,297.93v2.18H436.2v-6.77h3.58a4.62,4.62,0,0,0,4.75,4c2.41,0,3.58-1,3.58-2.84s-1.4-2.38-4.36-2.89c-5.37-.85-7.28-2.84-7.28-6.38s2.84-5.88,6.7-5.88c3.19,0,4.36,1,5.06,2.34v-1.91h3.66v6h-3.51a4.14,4.14,0,0,0-4.4-3.27c-1.94,0-3.15.78-3.15,2.42s.93,2.22,4.17,2.8c4.71.78,7.63,2.06,7.63,6.39,0,4-2.65,6.42-7.48,6.42C441.8,300.5,440.52,299.06,440,297.93Z" transform="translate(-136.33 -270.91)"/><path class="cls-1" d="M470.69,279.75h3.81V287h-4.08a4.74,4.74,0,0,0-5.06-4c-3.24,0-5.53,2.49-5.53,6.73v.35c0,4.4,2.18,6.74,5.64,6.74a4.66,4.66,0,0,0,4.91-4.36h4.28c-.35,4.67-3.85,8-9.38,8-5.84,0-10.28-3.82-10.28-10.39v-.32c0-6.22,4.17-10.47,9.69-10.47,3.47,0,5.22,1.48,6,3.15Z" transform="translate(-136.33 -270.91)"/><path class="cls-1" d="M477.26,300.11v-3.46h2.46V283.33h-2.49v-3.58h7.16v16.9h2.53v3.46Zm1.8-26.43a2.88,2.88,0,0,1,5.76,0,2.88,2.88,0,0,1-5.76,0Z" transform="translate(-136.33 -270.91)"/><path class="cls-1" d="M488.9,290.14v-.31c0-6.3,4.33-10.51,10.13-10.51,5,0,9.61,3,9.61,10.28V291H493.73c.16,3.93,2.1,6,5.61,6,2.84,0,4.32-1.13,4.67-3.12h4.51c-.66,4.28-4.08,6.62-9.3,6.62C493.23,300.5,488.9,296.57,488.9,290.14ZM504,287.77c-.23-3.43-2-5-4.94-5s-4.75,1.94-5.22,5Z" transform="translate(-136.33 -270.91)"/><path class="cls-1" d="M510.94,300.11v-3.46h2.45V283.33H510.9v-3.58h7.2v3.43a7,7,0,0,1,6.42-3.86c4,0,6.89,2.26,6.89,7.87v9.46h2.42v3.46h-9.66v-3.46h2.53v-9.07c0-2.92-1.32-4.33-4-4.33A4.45,4.45,0,0,0,518.1,288v8.61h2.53v3.46Z" transform="translate(-136.33 -270.91)"/><path class="cls-1" d="M551.34,279.75h3.82V287h-4.09a4.73,4.73,0,0,0-5.06-4c-3.23,0-5.53,2.49-5.53,6.73v.35c0,4.4,2.18,6.74,5.65,6.74a4.65,4.65,0,0,0,4.9-4.36h4.28c-.35,4.67-3.85,8-9.38,8-5.84,0-10.28-3.82-10.28-10.39v-.32c0-6.22,4.17-10.47,9.7-10.47,3.46,0,5.22,1.48,6,3.15Z" transform="translate(-136.33 -270.91)"/><path class="cls-1" d="M557.92,290.14v-.31c0-6.3,4.32-10.51,10.12-10.51,5,0,9.62,3,9.62,10.28V291H562.75c.15,3.93,2.1,6,5.6,6,2.85,0,4.33-1.13,4.68-3.12h4.51c-.66,4.28-4.09,6.62-9.3,6.62C562.24,300.5,557.92,296.57,557.92,290.14ZM573,287.77c-.24-3.43-2-5-5-5s-4.75,1.94-5.21,5Z" transform="translate(-136.33 -270.91)"/><path class="cls-1" d="M320.35,340.66v-3.82h3.08v-20.2h-3.08v-3.82h12.58c6.07,0,10.2,2.42,10.2,8.1v.16c0,4.08-2.61,6.58-6.12,7.35l5.73,8.41h2.33v3.82h-5.64L332,329.25h-3.34v7.59h3.15v3.82Zm12.42-15.07c3.47,0,5.29-1.48,5.29-4.55v-.16c0-3-2-4.24-5.29-4.24h-4.16v8.95Z" transform="translate(-136.33 -270.91)"/><path class="cls-1" d="M346.51,330.69v-.31c0-6.31,4.32-10.51,10.12-10.51,5,0,9.62,3,9.62,10.28v1.4H351.34c.15,3.93,2.1,6,5.6,6,2.85,0,4.32-1.13,4.67-3.11h4.52c-.66,4.28-4.09,6.62-9.3,6.62C350.83,341.05,346.51,337.12,346.51,330.69Zm15.06-2.37c-.23-3.43-2-5-4.94-5s-4.75,1.95-5.21,5Z" transform="translate(-136.33 -270.91)"/><path class="cls-1" d="M372.44,338.48v2.18h-3.78v-6.78h3.58a4.63,4.63,0,0,0,4.75,4c2.42,0,3.58-1,3.58-2.85s-1.4-2.37-4.36-2.88c-5.37-.85-7.28-2.84-7.28-6.38s2.84-5.88,6.7-5.88c3.19,0,4.36,1,5.06,2.34V320.3h3.66v6h-3.51a4.13,4.13,0,0,0-4.39-3.27c-1.95,0-3.16.78-3.16,2.42s.94,2.22,4.17,2.8c4.71.78,7.63,2.06,7.63,6.38,0,4-2.65,6.43-7.48,6.43C374.27,341.05,373,339.61,372.44,338.48Z" transform="translate(-136.33 -270.91)"/><path class="cls-1" d="M387.46,330.69v-.31c0-6.31,4.32-10.51,10.12-10.51,5,0,9.62,3,9.62,10.28v1.4H392.29c.15,3.93,2.1,6,5.6,6,2.85,0,4.33-1.13,4.68-3.11h4.51c-.66,4.28-4.09,6.62-9.3,6.62C391.78,341.05,387.46,337.12,387.46,330.69Zm15.07-2.37c-.24-3.43-2-5-4.95-5s-4.75,1.95-5.21,5Z" transform="translate(-136.33 -270.91)"/><path class="cls-1" d="M416.42,341.05c-3.7,0-6.69-1.79-6.69-6,0-4.82,4.55-6.46,10.31-6.46h2.5V327.5c0-2.88-1.06-4.09-3.66-4.09-2.38,0-3.55,1-3.82,3.2h-4.51c.35-4.87,4.08-6.74,8.6-6.74s8.06,1.71,8.06,7.44v9.88h2.37v3.47h-7v-2.73C421.37,339.88,419.5,341.05,416.42,341.05Zm6.12-7.52v-2h-2.38c-3.5,0-5.76.9-5.76,3.31,0,1.52.86,2.8,3.15,2.8C420.39,337.62,422.54,336.14,422.54,333.53Z" transform="translate(-136.33 -270.91)"/><path class="cls-1" d="M431.37,340.66v-3.47h2.45V323.88h-2.49V320.3h7.2v4.05c1.09-2.57,3.2-4.36,7.09-4.36v4.51c-4.4-.11-7.09,1.29-7.09,5.57v7.12h2.69v3.47Z" transform="translate(-136.33 -270.91)"/><path class="cls-1" d="M463.06,320.3h3.81v7.28h-4.08a4.73,4.73,0,0,0-5.06-4c-3.24,0-5.53,2.49-5.53,6.73v.35c0,4.4,2.18,6.74,5.64,6.74a4.67,4.67,0,0,0,4.91-4.36H467c-.35,4.67-3.86,8-9.38,8-5.84,0-10.28-3.82-10.28-10.4v-.31c0-6.23,4.17-10.47,9.69-10.47,3.47,0,5.22,1.48,6,3.15Z" transform="translate(-136.33 -270.91)"/><path class="cls-1" d="M469.44,340.66v-3.47h2.45V314.46H469.4v-3.58h7.2v12.84a7,7,0,0,1,6.43-3.85c4,0,6.89,2.26,6.89,7.86v9.46h2.41v3.47h-9.61v-3.47h2.49v-9.07c0-2.92-1.33-4.32-4-4.32a4.46,4.46,0,0,0-4.64,4.79v8.6h2.5v3.47Z" transform="translate(-136.33 -270.91)"/><path class="cls-1" d="M502.41,340.66v-3.82h3.08v-20.2h-3.08v-3.82h11.37v3.82H510.7v20.2h3.08v3.82Z" transform="translate(-136.33 -270.91)"/><path class="cls-1" d="M516,340.66v-3.47h2.46V323.88H516V320.3h7.2v3.42a7,7,0,0,1,6.42-3.85c4,0,6.89,2.26,6.89,7.86v9.46h2.42v3.47h-9.66v-3.47h2.53v-9.07c0-2.92-1.32-4.32-4-4.32a4.45,4.45,0,0,0-4.63,4.79v8.6h2.53v3.47Z" transform="translate(-136.33 -270.91)"/><path class="cls-1" d="M544.84,338.48v2.18h-3.78v-6.78h3.59a4.62,4.62,0,0,0,4.74,4c2.42,0,3.59-1,3.59-2.85s-1.4-2.37-4.36-2.88c-5.38-.85-7.28-2.84-7.28-6.38s2.84-5.88,6.69-5.88c3.19,0,4.36,1,5.06,2.34V320.3h3.66v6h-3.5a4.14,4.14,0,0,0-4.4-3.27c-2,0-3.15.78-3.15,2.42s.93,2.22,4.16,2.8c4.71.78,7.63,2.06,7.63,6.38,0,4-2.64,6.43-7.47,6.43C546.67,341.05,545.39,339.61,544.84,338.48Z" transform="translate(-136.33 -270.91)"/><path class="cls-1" d="M562.05,335V323.88h-2.73V320.3h2.73v-4.48h4.71v4.48h4.82v3.58h-4.82v10.74c0,1.79.82,2.65,2.61,2.65a6.94,6.94,0,0,0,2.41-.43v3.62a11.09,11.09,0,0,1-3.31.55C564.11,341,562.05,338.83,562.05,335Z" transform="translate(-136.33 -270.91)"/><path class="cls-1" d="M574.11,340.66v-3.47h2.46V323.88h-2.5V320.3h7.17v16.89h2.53v3.47Zm1.79-26.43a2.89,2.89,0,1,1,2.88,2.76A2.78,2.78,0,0,1,575.9,314.23Z" transform="translate(-136.33 -270.91)"/><path class="cls-1" d="M587.74,335V323.88H585V320.3h2.73v-4.48h4.71v4.48h4.83v3.58h-4.83v10.74c0,1.79.81,2.65,2.61,2.65a6.94,6.94,0,0,0,2.41-.43v3.62a11,11,0,0,1-3.31.55C589.8,341,587.74,338.83,587.74,335Z" transform="translate(-136.33 -270.91)"/><path class="cls-1" d="M608.72,341.09c-3.89,0-6.78-2.26-6.78-7.91v-9.3h-2.45V320.3h7.17v12.42c0,3,1.28,4.43,3.89,4.43,2.41,0,4.55-1.63,4.55-4.9v-8.37h-2.45V320.3h7.2v16.89h2.46v3.47H615.1v-3.43A7,7,0,0,1,608.72,341.09Z" transform="translate(-136.33 -270.91)"/><path class="cls-1" d="M626.47,335V323.88h-2.73V320.3h2.73v-4.48h4.71v4.48H636v3.58h-4.83v10.74c0,1.79.82,2.65,2.61,2.65a6.87,6.87,0,0,0,2.41-.43v3.62a11,11,0,0,1-3.31.55C628.53,341,626.47,338.83,626.47,335Z" transform="translate(-136.33 -270.91)"/><path class="cls-1" d="M638.34,330.69v-.31c0-6.31,4.32-10.51,10.12-10.51,5,0,9.62,3,9.62,10.28v1.4H643.17c.15,3.93,2.1,6,5.61,6,2.84,0,4.32-1.13,4.67-3.11H658c-.66,4.28-4.09,6.62-9.3,6.62C642.66,341.05,638.34,337.12,638.34,330.69Zm15.07-2.37c-.24-3.43-2-5-4.95-5s-4.75,1.95-5.21,5Z" transform="translate(-136.33 -270.91)"/><path class="cls-2" d="M136.33,271.1h20.9l29.68,48.5h.19V271.1h15.38v69.8H182.37l-30.46-49.69h-.2V340.9H136.33Z" transform="translate(-136.33 -270.91)"/><path class="cls-2" d="M216.68,271.1h27a47.63,47.63,0,0,1,10.1,1,24,24,0,0,1,8.38,3.45,17.2,17.2,0,0,1,5.72,6.5A22.09,22.09,0,0,1,270,292.3a20.44,20.44,0,0,1-3.85,12.57q-3.84,5.17-11.23,6.55l17.74,29.48H254.24L239.65,313h-7.59v27.9H216.68ZM232.06,300h9.06c1.39,0,2.85-.05,4.39-.15a13.84,13.84,0,0,0,4.19-.89,7.28,7.28,0,0,0,3.11-2.31A7.1,7.1,0,0,0,254,292.2a6.78,6.78,0,0,0-3.85-6.66,12.51,12.51,0,0,0-3.84-1.13,31,31,0,0,0-4.24-.3H232.06Z" transform="translate(-136.33 -270.91)"/><path class="cls-2" d="M280.36,271.1h15.38v69.8H280.36Z" transform="translate(-136.33 -270.91)"/></svg>