<?xml version="1.0" encoding="utf-8"?>
<!-- Generator: Adobe Illustrator 25.4.1, SVG Export Plug-In . SVG Version: 6.00 Build 0)  -->
<svg version="1.1" id="Type_outlined" xmlns="http://www.w3.org/2000/svg" xmlns:xlink="http://www.w3.org/1999/xlink" x="0px"
	 y="0px" viewBox="0 0 698.2 148.5" style="enable-background:new 0 0 698.2 148.5;" xml:space="preserve">
<style type="text/css">
	.st0{fill:#FBEEE4;}
	.st1{fill:#FEBC10;}
</style>
<g>
	<path class="st0" d="M166.6,103.6v-2.4h3.2V80.3h-3.2v-2.4h10.5c4.9,0,9,2.2,9,7.5v0.1c0,5.4-4.1,7.6-9,7.6H173v8.1h3.5v2.4H166.6z
		 M177.4,90.6c3.7,0,5.7-1.8,5.7-5.1v-0.1c0-3.7-2.2-5.1-5.7-5.1H173v10.3C173,90.6,177.4,90.6,177.4,90.6z"/>
	<path class="st0" d="M190.8,101.3v2.3h-2.5v-6.3h2.4c0.4,2.2,2.1,4.2,5,4.2c2.6,0,3.9-1.1,3.9-3.1c0-2-1.5-2.7-4.4-3.2
		c-4.9-0.9-6.6-2.6-6.6-5.8c0-3.2,2.7-5,5.9-5c2.7,0,4.1,1,4.7,2.3v-2h2.5v5.4h-2.4c-0.4-2.1-2.1-3.4-4.5-3.4
		c-2.1,0-3.5,0.8-3.5,2.6c0,1.7,0.9,2.5,4.4,3.2c3.9,0.8,6.7,1.7,6.7,5.7c0,3.3-2.3,5.7-6.8,5.7
		C192.8,103.9,191.3,102.4,190.8,101.3z"/>
	<path class="st0" d="M221.8,87.2l-9.5,22.9h-4.8v-2.3h2.9l2.6-6.2l-6.3-14.4h-2.4v-2.4h8.3v2.4h-2.7l4.7,11.1l4.3-11.1h-2.8v-2.4
		h8.1v2.4C224.1,87.2,221.8,87.2,221.8,87.2z"/>
	<path class="st0" d="M240,84.8h2.6v6.4h-2.6c-0.6-2.5-2.4-4.2-5.6-4.2c-3.4,0-6,2.7-6,7.2v0.3c0,4.6,2.5,7.1,6.2,7.1
		c2.7,0,5.1-1.5,5.4-4.6h2.8c-0.4,4.1-3.7,7.1-8.2,7.1c-5.3,0-9.2-3.7-9.2-9.5v-0.3c0-5.8,4.1-9.6,9.1-9.6c3.2,0,4.8,1.3,5.5,2.8
		L240,84.8L240,84.8z"/>
	<path class="st0" d="M245.5,103.6v-2.3h2.6v-23h-2.7v-2.4h5.7v12.2c0.9-1.8,2.9-3.5,5.9-3.5c3.8,0,6.6,2,6.6,7.5v9.4h2.6v2.3h-8.3
		v-2.3h2.7v-9.6c0-3.2-1.4-4.6-4.4-4.6c-2.7,0-5.1,1.8-5.1,5.1v9.1h2.7v2.3H245.5z"/>
	<path class="st0" d="M268.2,94.3v-0.3c0-5.7,3.9-9.6,9.3-9.6c5.3,0,9.2,3.9,9.2,9.6v0.3c0,5.7-3.9,9.6-9.3,9.6
		S268.2,99.9,268.2,94.3z M283.6,94.3v-0.3c0-4.4-2.4-7.2-6.2-7.2c-3.8,0-6.2,2.8-6.2,7.1v0.3c0,4.3,2.3,7.1,6.2,7.1
		C281.2,101.4,283.6,98.6,283.6,94.3z"/>
	<path class="st0" d="M289,103.6v-2.3h2.6v-23h-2.7v-2.4h5.7v25.5h2.6v2.3H289z"/>
	<path class="st0" d="M299.3,94.3v-0.3c0-5.7,3.9-9.6,9.3-9.6c5.3,0,9.2,3.9,9.2,9.6v0.3c0,5.7-3.9,9.6-9.3,9.6
		S299.3,99.9,299.3,94.3z M314.7,94.3v-0.3c0-4.4-2.4-7.2-6.2-7.2c-3.8,0-6.2,2.8-6.2,7.1v0.3c0,4.3,2.3,7.1,6.2,7.1
		C312.3,101.4,314.7,98.6,314.7,94.3z"/>
	<path class="st0" d="M320.9,104.7h3.1c0.4,2.2,2.2,3.3,5.4,3.3c3.7,0,6-1.8,6-5.8v-2.7c-1.1,1.8-3.6,3.6-6.4,3.6
		c-4.9,0-8.6-3.7-8.6-8.9v-0.3c0-5.1,3.6-9.4,8.8-9.4c3.1,0,5.1,1.5,6.2,3.3v-3h5.5v2.4h-2.6v15.1c0,5.5-3.7,8.1-9,8.1
		C323.8,110.5,321.4,107.8,320.9,104.7z M335.5,93.8v-0.3c0-4.2-2.3-6.7-6-6.7c-3.7,0-6,2.8-6,6.7V94c0,4.1,2.6,6.6,5.8,6.6
		C332.9,100.5,335.5,98.1,335.5,93.8z"/>
	<path class="st0" d="M342.8,103.6v-2.3h2.6v-14h-2.7v-2.4h5.7v16.5h2.7v2.3H342.8z M344.7,78.8c0-1.2,0.9-2,2.1-2s2.1,0.9,2.1,2
		c0,1.2-0.9,2.1-2.1,2.1S344.7,80,344.7,78.8z"/>
	<path class="st0" d="M367.9,84.8h2.6v6.4H368c-0.6-2.5-2.4-4.2-5.6-4.2c-3.4,0-6,2.7-6,7.2v0.3c0,4.6,2.5,7.1,6.2,7.1
		c2.7,0,5.1-1.5,5.4-4.6h2.8c-0.4,4.1-3.7,7.1-8.2,7.1c-5.3,0-9.2-3.7-9.2-9.5v-0.3c0-5.8,4.1-9.6,9.1-9.6c3.2,0,4.8,1.3,5.5,2.8
		L367.9,84.8L367.9,84.8z"/>
	<path class="st0" d="M379.8,103.9c-3.4,0-6.1-1.7-6.1-5.5c0-4.4,4.5-5.8,9.3-5.8h2.6v-1.4c0-3.2-1.3-4.2-4-4.2
		c-2.5,0-3.9,0.9-4.2,3.4h-3c0.4-4.4,3.7-5.9,7.3-5.9c3.5,0,6.8,1.3,6.8,6.7v10.1h2.5v2.3h-5.5V101
		C384.3,103,382.5,103.9,379.8,103.9z M385.6,97v-2.3h-2.5c-3.7,0-6.4,1-6.4,3.7c0,1.7,0.9,3.2,3.4,3.2
		C383.2,101.5,385.6,99.9,385.6,97z"/>
	<path class="st0" d="M393,103.6v-2.3h2.6v-23H393v-2.4h5.7v25.5h2.6v2.3H393z"/>
</g>
<g>
	<path class="st0" d="M176.5,141.7c-4.1,0-6.4-2.4-6.4-6.7v-9.6h-2v-1.7h6.4v1.7h-2.2v9.4c0,3.7,1.3,5.2,4.3,5.2
		c2.9,0,4.5-1.1,4.5-5.5v-9.1h-2.2v-1.7h6.4v1.7h-2v9.4C183.3,139,181.1,141.7,176.5,141.7z"/>
	<path class="st0" d="M195.1,141.7c-5.2,0-8.3-3.5-8.3-9v-0.2c0-5.3,3.5-9.1,8.5-9.1c2.2,0,4.2,0.8,5.1,2.4v-2.1h1.9v5.6h-1.8
		c-0.7-3-2.6-4.1-5.3-4.1c-3.7,0-6.2,2.9-6.2,7.4v0.2c0,4.5,2.3,7.3,6.1,7.3c2.9,0,4.9-1.5,5.4-4.4h2
		C202,139.6,199.1,141.7,195.1,141.7z"/>
	<path class="st0" d="M222.2,125.1l-2.3,2.4c-0.7-1-1.9-1.4-3.1-1.4c-1.8,0-2.9,0.9-2.9,2.3c0,1.2,1,1.9,2.8,2.4
		c2.8,0.9,5.6,1.8,5.6,5.4s-2.9,5.6-6.3,5.6c-2.5,0-4.5-0.8-5.9-2.4l2.4-2.3c0.8,1.2,2.1,1.9,3.5,1.9c1.7,0,3.1-1,3.1-2.4
		c0-1.3-0.9-2-3.2-2.7c-3.2-1-5.2-2-5.2-5.2s2.7-5.3,6.5-5.3C219.2,123.3,221,123.9,222.2,125.1z"/>
	<path class="st0" d="M234.1,123.7l7.6,17.7h-3.6l-1.6-4h-7.7l-1.6,4h-3.5l7.7-17.7C231.3,123.7,234.1,123.7,234.1,123.7z
		 M229.8,134.7h5.5l-2.7-7.2L229.8,134.7z"/>
	<path class="st0" d="M247.8,123.7l8.6,13.1h0v-13.1h3.1v17.7h-4l-8.7-13.6h-0.1v13.6h-3.1v-17.7
		C243.7,123.7,247.8,123.7,247.8,123.7z"/>
	<path class="st0" d="M275.8,123.7v2.8h-5.4v14.8h-3.1v-14.8h-5.4v-2.8H275.8z"/>
	<path class="st0" d="M284.1,123.7l7.6,17.7h-3.6l-1.6-4h-7.7l-1.6,4h-3.5l7.7-17.7C281.3,123.7,284.1,123.7,284.1,123.7z
		 M279.8,134.7h5.5l-2.7-7.2L279.8,134.7z"/>
	<path class="st0" d="M308.1,123.7c2.3,0,5.3,1,5.3,4.4c0,1.8-1.1,3.2-3.1,3.9v0.1c2.3,0.3,3.8,2.1,3.8,4.3c0,3.4-2.7,5-6.6,5h-6.5
		v-17.7C301.1,123.7,308.1,123.7,308.1,123.7z M307.2,130.9c1.9,0,3-0.9,3-2.2c0-1.5-1.1-2.3-3.3-2.3h-2.7v4.5L307.2,130.9
		L307.2,130.9z M307.2,138.7c2.5,0,3.8-0.9,3.8-2.6c0-1.8-1.2-2.5-3.6-2.5h-3.2v5.1H307.2z"/>
	<path class="st0" d="M325.7,123.7l7.6,17.7h-3.6l-1.6-4h-7.7l-1.6,4h-3.5l7.7-17.7C323,123.7,325.7,123.7,325.7,123.7z
		 M321.5,134.7h5.5l-2.7-7.2L321.5,134.7z"/>
	<path class="st0" d="M341.6,123.7c3.4,0,6.5,1.2,6.5,5.1c0,2.6-1.6,4.4-4.1,4.8l4.7,7.8h-3.8l-4.1-7.5h-2.3v7.5h-3.1v-17.7
		C335.3,123.7,341.6,123.7,341.6,123.7z M341.1,131.2c1.8,0,3.7-0.2,3.7-2.4c0-2-1.8-2.3-3.5-2.3h-2.8v4.8H341.1z"/>
	<path class="st0" d="M358.1,123.7c2.3,0,5.3,1,5.3,4.4c0,1.8-1.1,3.2-3.1,3.9v0.1c2.3,0.3,3.8,2.1,3.8,4.3c0,3.4-2.7,5-6.6,5h-6.5
		v-17.7C351.1,123.7,358.1,123.7,358.1,123.7z M357.2,130.9c1.9,0,3-0.9,3-2.2c0-1.5-1.1-2.3-3.3-2.3h-2.7v4.5L357.2,130.9
		L357.2,130.9z M357.2,138.7c2.5,0,3.8-0.9,3.8-2.6c0-1.8-1.2-2.5-3.6-2.5h-3.2v5.1H357.2z"/>
	<path class="st0" d="M375.7,123.7l7.6,17.7h-3.6l-1.6-4h-7.7l-1.6,4h-3.5l7.7-17.7C373,123.7,375.7,123.7,375.7,123.7z
		 M371.5,134.7h5.5l-2.7-7.2L371.5,134.7z"/>
	<path class="st0" d="M391.6,123.7c3.4,0,6.5,1.2,6.5,5.1c0,2.6-1.6,4.4-4.1,4.8l4.7,7.8h-3.8l-4.1-7.5h-2.3v7.5h-3.1v-17.7
		C385.3,123.7,391.6,123.7,391.6,123.7z M391.1,131.2c1.8,0,3.7-0.2,3.7-2.4c0-2-1.8-2.3-3.5-2.3h-2.8v4.8H391.1z"/>
	<path class="st0" d="M409.5,123.7l7.6,17.7h-3.6l-1.6-4h-7.7l-1.6,4h-3.5l7.7-17.7C406.8,123.7,409.5,123.7,409.5,123.7z
		 M405.3,134.7h5.5l-2.7-7.2L405.3,134.7z"/>
</g>
<g>
	<path class="st0" d="M450.7,101.9h3.2V81.1h-3.2v-2.4h11c4.8,0,8.3,1.6,8.3,6.7v0.1c0,2.3-0.9,4.4-3.9,5.4c3.7,0.9,5.1,2.8,5.1,6.2
		v0.1c0,4.9-3.3,7.2-8.5,7.2h-12.1L450.7,101.9L450.7,101.9z M461.7,89.9c3.8,0,5.2-1.4,5.2-4.5v-0.1c0-2.9-1.7-4.1-5.3-4.1H457v8.8
		L461.7,89.9L461.7,89.9z M462.7,101.9c3.7,0,5.5-1.7,5.5-4.8V97c0-3.2-1.8-4.7-5.9-4.7H457v9.6L462.7,101.9L462.7,101.9z"/>
	<path class="st0" d="M473.8,104.4v-2.3h2.6V88h-2.7v-2.4h5.7v3.6c0.9-2,2.8-3.9,6.8-3.9v3c-4.1,0-6.8,1.3-6.8,5.9v8h2.9v2.3
		L473.8,104.4L473.8,104.4z"/>
	<path class="st0" d="M494.1,104.7c-3.4,0-6.1-1.7-6.1-5.5c0-4.4,4.5-5.8,9.3-5.8h2.6V92c0-3.2-1.3-4.2-4-4.2
		c-2.5,0-3.9,0.9-4.2,3.4h-3c0.4-4.4,3.7-5.9,7.3-5.9c3.5,0,6.8,1.3,6.8,6.7v10.1h2.5v2.3h-5.5v-2.6
		C498.7,103.7,496.8,104.7,494.1,104.7z M499.9,97.8v-2.3h-2.5c-3.7,0-6.4,1-6.4,3.7c0,1.7,0.9,3.2,3.4,3.2
		C497.5,102.3,499.9,100.7,499.9,97.8z"/>
	<path class="st0" d="M507.4,104.4v-2.3h2.6V88h-2.7v-2.4h5.7v16.5h2.7v2.3L507.4,104.4L507.4,104.4z M509.3,79.6c0-1.2,0.9-2,2.1-2
		c1.1,0,2.1,0.9,2.1,2c0,1.2-0.9,2.1-2.1,2.1C510.2,81.7,509.3,80.8,509.3,79.6z"/>
	<path class="st0" d="M517.6,104.4v-2.3h2.6V88h-2.7v-2.4h5.7v3.2c0.9-1.8,2.9-3.5,5.9-3.5c3.8,0,6.6,2,6.6,7.5v9.4h2.6v2.3H530
		v-2.3h2.7v-9.6c0-3.2-1.4-4.6-4.4-4.6c-2.7,0-5.1,1.8-5.1,5.1v9.1h2.7v2.3L517.6,104.4L517.6,104.4z"/>
	<path class="st0" d="M552,101.5v2.9h-2.7v-7.9h2.7c0.6,3.2,2.9,5.8,6.9,5.8c3.2,0,5.5-1.9,5.5-4.7c0-2.9-1.3-4.5-6-5.2
		c-5.1-0.8-8.7-2.7-8.7-7.2c0-4.1,3.2-6.8,7.8-6.8c3.6,0,5.3,1.3,6.1,2.8v-2.5h2.6v6.8h-2.6c-0.6-2.8-2.8-4.7-6-4.7
		c-3.1,0-5,1.5-5,4c0,2.4,1.3,3.9,6.3,4.8c5.5,0.9,8.5,2.8,8.5,7.7c0,4.4-3.6,7.4-8.6,7.4C555.5,104.7,553.1,103.6,552,101.5z"/>
	<path class="st0" d="M585.1,85.6h2.6v6.4h-2.6c-0.6-2.5-2.4-4.2-5.6-4.2c-3.4,0-6,2.7-6,7.2v0.3c0,4.6,2.5,7.1,6.2,7.1
		c2.7,0,5.1-1.5,5.4-4.6h2.8c-0.4,4.1-3.7,7.1-8.2,7.1c-5.3,0-9.2-3.7-9.2-9.5v-0.3c0-5.8,4.1-9.6,9.1-9.6c3.2,0,4.8,1.3,5.5,2.8
		L585.1,85.6L585.1,85.6z"/>
	<path class="st0" d="M590.8,104.4v-2.3h2.6V88h-2.7v-2.4h5.7v16.5h2.7v2.3L590.8,104.4L590.8,104.4z M592.7,79.6c0-1.2,0.9-2,2.1-2
		c1.1,0,2.1,0.9,2.1,2c0,1.2-0.9,2.1-2.1,2.1C593.6,81.7,592.7,80.8,592.7,79.6z"/>
	<path class="st0" d="M601.3,95.2v-0.3c0-5.7,3.6-9.6,8.8-9.6c4.4,0,8.5,2.6,8.5,9.4v1h-14.2c0.1,4.3,2.2,6.7,6,6.7
		c2.9,0,4.6-1.1,5-3.3h3c-0.6,3.8-3.8,5.8-8,5.8C605,104.7,601.3,101,601.3,95.2z M615.5,93.2c-0.3-3.9-2.3-5.4-5.4-5.4
		c-3.1,0-5.1,2.1-5.6,5.4H615.5z"/>
	<path class="st0" d="M621,104.4v-2.3h2.6V88H621v-2.4h5.7v3.2c0.9-1.8,2.9-3.5,5.9-3.5c3.8,0,6.6,2,6.6,7.5v9.4h2.6v2.3h-8.3v-2.3
		h2.7v-9.6c0-3.2-1.4-4.6-4.4-4.6c-2.7,0-5.1,1.8-5.1,5.1v9.1h2.7v2.3L621,104.4L621,104.4z"/>
	<path class="st0" d="M658.4,85.6h2.6v6.4h-2.6c-0.6-2.5-2.4-4.2-5.6-4.2c-3.4,0-6,2.7-6,7.2v0.3c0,4.6,2.5,7.1,6.2,7.1
		c2.7,0,5.1-1.5,5.4-4.6h2.8c-0.4,4.1-3.7,7.1-8.2,7.1c-5.3,0-9.2-3.7-9.2-9.5v-0.3c0-5.8,4.1-9.6,9.1-9.6c3.2,0,4.8,1.3,5.5,2.8
		L658.4,85.6L658.4,85.6z"/>
	<path class="st0" d="M664.1,95.2v-0.3c0-5.7,3.6-9.6,8.8-9.6c4.4,0,8.5,2.6,8.5,9.4v1h-14.2c0.1,4.3,2.2,6.7,6,6.7
		c2.9,0,4.6-1.1,5-3.3h3c-0.6,3.8-3.8,5.8-8,5.8C667.8,104.7,664.1,101,664.1,95.2z M678.3,93.2c-0.3-3.9-2.3-5.4-5.4-5.4
		c-3.1,0-5.1,2.1-5.6,5.4H678.3z"/>
	<path class="st0" d="M686.5,102.1v2.3H684v-6.3h2.4c0.4,2.2,2.1,4.2,5,4.2c2.6,0,3.9-1.1,3.9-3.1c0-2-1.5-2.7-4.4-3.2
		c-4.9-0.9-6.6-2.6-6.6-5.8c0-3.2,2.7-5,5.9-5c2.7,0,4.1,1,4.7,2.3v-2h2.5V91h-2.4c-0.4-2.1-2.1-3.4-4.5-3.4c-2.1,0-3.5,0.8-3.5,2.6
		c0,1.7,0.9,2.5,4.4,3.2c3.9,0.8,6.7,1.7,6.7,5.7c0,3.3-2.3,5.7-6.8,5.7C688.5,104.7,687,103.2,686.5,102.1z"/>
</g>
<g>
	<path class="st0" d="M434.9,99.2c-2,2.8-4.7,4.1-7.9,4.1c-2.1,0-4-0.5-5.6-1.5c-1.9-1.2-2.9-2.7-2.9-4.8c0-1.8,0.8-3.5,2.5-5
		c1.1-1,2.7-2,4.9-3.1c-2.8-1.5-4.1-3.4-4.1-5.8c0-1.5,0.6-2.7,1.9-3.6c1.1-0.8,2.5-1.2,4.1-1.2c1.7,0,3.1,0.4,4.2,1.2
		c1.2,0.9,1.9,2.1,1.9,3.7c0,2.3-2.3,4.7-6.9,7.1c-2.3,1.2-3.8,2.1-4.6,2.8c-1.4,1.2-2.1,2.6-2.1,4c0,1.4,0.7,2.5,2.1,3.4
		c1.3,0.8,2.7,1.2,4.4,1.2c3.1,0,5.4-1.3,6.9-3.9c0.8-1.5,1.2-3.2,1.2-5.1h1.8v10.8h-1.8L434.9,99.2L434.9,99.2z M430.7,80.8
		c-0.8-0.5-1.7-0.8-2.8-0.8c-1.2,0-2.1,0.3-3,0.8c-0.9,0.6-1.3,1.4-1.3,2.4c0,2.1,1.4,3.7,4.1,4.9c2.9-1.6,4.4-3.2,4.4-4.9
		C432.1,82.2,431.6,81.4,430.7,80.8z"/>
</g>
<path id="brain_stem_1_" class="st1" d="M113.3,126.5c-1-8.9-7.9-15.8-31.2-15.7c7-1.9,19.5-1.9,22.6,0.3c-0.2-4-13.7-24.7-8.7-33.8
	c-0.9,15.6,11.5,26.3,22.3,41.9c8.2,11.6,5,20.9,4.7,29c-8.1,0.5-6.9,0.5-12.8-0.6C111.5,140.9,114.1,133.1,113.3,126.5"/>
<g>
	<polygon class="st1" points="79.5,39.7 85.1,17.4 68.6,1.4 46.5,7.7 40.9,30 57.4,46 	"/>
	<polygon class="st1" points="91,80.1 96.6,57.8 80.1,41.8 58,48.1 52.4,70.4 68.9,86.4 	"/>
	<polygon class="st1" points="161.2,61 166.8,38.7 150.3,22.7 128.2,29 122.6,51.3 139.1,67.3 	"/>
	<polygon class="st1" points="50.3,70.1 55.9,47.8 39.4,31.8 17.3,38.1 11.7,60.4 28.2,76.4 	"/>
	<polygon class="st1" points="120.3,50.2 125.9,27.9 109.4,11.9 87.3,18.2 81.7,40.5 98.2,56.5 	"/>
	<polygon class="st1" points="61.8,110.3 67.4,88 50.9,72 28.8,78.3 23.2,100.6 39.7,116.6 	"/>
	<polygon class="st1" points="138.5,22.7 141.1,12.2 133.4,4.7 123,7.7 120.4,18.1 128.1,25.6 	"/>
	<polygon class="st1" points="114.7,74.2 117.3,63.7 109.6,56.2 99.2,59.2 96.6,69.6 104.3,77.1 	"/>
	<polygon class="st1" points="85.8,104.4 88.4,93.9 80.7,86.4 70.3,89.3 67.7,99.8 75.4,107.3 	"/>
	<polygon class="st1" points="20.9,89.3 23.6,78.8 15.8,71.3 5.5,74.3 2.8,84.7 10.6,92.2 	"/>
	<polygon class="st1" points="38.3,28.9 40.9,18.4 33.2,10.9 22.8,13.8 20.2,24.3 27.9,31.8 	"/>
	<polygon class="st1" points="132.4,78.7 134.6,70 128.1,63.8 119.5,66.3 117.3,74.9 123.8,81.2 	"/>
	<polygon class="st1" points="75,119.5 76.8,112.6 71.6,107.5 64.7,109.5 62.9,116.5 68.1,121.5 	"/>
	<polygon class="st1" points="119.1,88.9 120.8,81.9 115.7,76.9 108.7,78.8 107,85.8 112.1,90.8 	"/>
	<polygon class="st1" points="25.3,114.5 27.1,107.5 21.9,102.5 15,104.4 13.2,111.4 18.4,116.4 	"/>
	<polygon class="st1" points="76.7,131.9 78.1,126.6 74.1,122.7 68.7,124.2 67.4,129.6 71.4,133.5 	"/>
	<polygon class="st1" points="63.7,128.2 65.1,122.8 61.1,118.9 55.8,120.5 54.4,125.8 58.4,129.7 	"/>
	<polygon class="st1" points="9.3,69.8 10.7,64.4 6.7,60.6 1.4,62.1 0,67.5 4,71.3 	"/>
	<polygon class="st1" points="92.4,13.6 93.7,8.3 89.7,4.4 84.4,5.9 83,11.3 87,15.2 	"/>
	<polygon class="st1" points="36.4,123.1 37.7,117.7 33.8,113.8 28.4,115.3 27.1,120.7 31,124.6 	"/>
	<polygon class="st1" points="107.8,9.2 109.2,3.9 105.2,0 99.8,1.5 98.5,6.9 102.5,10.8 	"/>
</g>
</svg>
